<svg width="20" height="20" viewBox="0 0 20 20" fill="none" xmlns="http://www.w3.org/2000/svg">
<g clip-path="url(#clip0_18_90)">
<path d="M17.7708 7.75667C17.1391 7.75667 16.5833 8.0225 16.1741 8.43667C14.67 7.38 12.6416 6.7 10.3941 6.6275L11.5616 1.28917L15.2791 2.13583C15.2791 3.05917 16.0208 3.81333 16.9308 3.81333C17.8583 3.81333 18.6041 3.03917 18.6041 2.115C18.6041 1.19083 17.8633 0.416666 16.9316 0.416666C16.2825 0.416666 15.7225 0.814166 15.4433 1.3575L11.3375 0.434166C11.1308 0.378333 10.9283 0.528333 10.8733 0.738333L9.59164 6.62333C7.36164 6.7175 5.35497 7.39667 3.8458 8.45417C3.43664 8.0225 2.85914 7.75667 2.22747 7.75667C-0.115865 7.75667 -0.883365 10.9475 1.26247 12.0383C1.18664 12.3758 1.15247 12.7358 1.15247 13.095C1.15247 16.6792 5.13164 19.5833 10.0175 19.5833C14.9241 19.5833 18.9033 16.6792 18.9033 13.095C18.9033 12.7358 18.8658 12.3592 18.7733 12.0208C20.8758 10.9258 20.1016 7.75833 17.7708 7.75667V7.75667ZM4.66747 12.265C4.66747 11.3242 5.40914 10.5667 6.3408 10.5667C7.2508 10.5667 7.9933 11.3192 7.9933 12.265C7.9933 13.1892 7.25164 13.9425 6.3408 13.9425C5.4133 13.9467 4.66747 13.1892 4.66747 12.265V12.265ZM13.7 16.2633C12.1658 17.82 7.83664 17.82 6.30164 16.2633C6.13247 16.1133 6.13247 15.8483 6.30164 15.6775C6.44914 15.5275 6.7108 15.5275 6.8583 15.6775C8.02997 16.8967 11.9166 16.9175 13.1391 15.6775C13.2866 15.5275 13.5483 15.5275 13.6958 15.6775C13.8683 15.8492 13.8683 16.1142 13.7 16.2633V16.2633ZM13.6658 13.9458C12.7558 13.9458 12.0141 13.1933 12.0141 12.27C12.0141 11.3292 12.7558 10.5717 13.6658 10.5717C14.5933 10.5717 15.3391 11.3242 15.3391 12.27C15.335 13.1892 14.5933 13.9458 13.6658 13.9458Z" fill="white"/>
</g>
<defs>
<clipPath id="clip0_18_90">
<rect width="20" height="20" fill="white"/>
</clipPath>
</defs>
</svg>
