<svg width="20" height="20" viewBox="0 0 20 20" fill="none" xmlns="http://www.w3.org/2000/svg">
<path d="M13.125 1.66667H6.87496C3.99892 1.66667 1.66663 3.99896 1.66663 6.875V13.125C1.66663 16.001 3.99892 18.3333 6.87496 18.3333H13.125C16.001 18.3333 18.3333 16.001 18.3333 13.125V6.875C18.3333 3.99896 16.001 1.66667 13.125 1.66667ZM16.7708 13.125C16.7708 15.1354 15.1354 16.7708 13.125 16.7708H6.87496C4.86454 16.7708 3.22913 15.1354 3.22913 13.125V6.875C3.22913 4.86458 4.86454 3.22917 6.87496 3.22917H13.125C15.1354 3.22917 16.7708 4.86458 16.7708 6.875V13.125Z" fill="white"/>
<path d="M10 5.83333C7.699 5.83333 5.83337 7.69896 5.83337 10C5.83337 12.3011 7.699 14.1667 10 14.1667C12.3011 14.1667 14.1667 12.3011 14.1667 10C14.1667 7.69896 12.3011 5.83333 10 5.83333ZM10 12.6042C8.56462 12.6042 7.39587 11.4354 7.39587 10C7.39587 8.56358 8.56462 7.39583 10 7.39583C11.4355 7.39583 12.6042 8.56358 12.6042 10C12.6042 11.4354 11.4355 12.6042 10 12.6042Z" fill="white"/>
<path d="M14.4791 6.07603C14.7858 6.07603 15.0344 5.82746 15.0344 5.52082C15.0344 5.21419 14.7858 4.96562 14.4791 4.96562C14.1725 4.96562 13.924 5.21419 13.924 5.52082C13.924 5.82746 14.1725 6.07603 14.4791 6.07603Z" fill="white"/>
</svg>
