<svg width="23" height="20" viewBox="0 0 23 20" fill="none" xmlns="http://www.w3.org/2000/svg">
<path d="M11.1048 3.70361C11.1048 3.70361 4.7382 3.70362 3.14028 4.11883C2.28469 4.35789 1.58019 5.06241 1.34112 5.93058C0.925912 7.5285 0.925903 10.8377 0.925903 10.8377C0.925903 10.8377 0.925912 14.1594 1.34112 15.7322C1.58019 16.6003 2.27211 17.2922 3.14028 17.5313C4.75079 17.9591 11.1048 17.9591 11.1048 17.9591C11.1048 17.9591 17.484 17.9591 19.0819 17.5439C19.9501 17.3049 20.642 16.6256 20.8684 15.7448C21.2962 14.1594 21.2962 10.8503 21.2962 10.8503C21.2962 10.8503 21.3089 7.5285 20.8684 5.93058C20.642 5.06241 19.9501 4.37049 19.0819 4.14401C17.484 3.70363 11.1048 3.70361 11.1048 3.70361ZM9.07903 7.78028L14.3762 10.8377L9.07903 13.8824V7.78028Z" fill="white"/>
</svg>
