<svg width="23" height="20" viewBox="0 0 23 20" fill="none" xmlns="http://www.w3.org/2000/svg">
<g clip-path="url(#clip0_18_82)">
<path d="M0.112488 17.2387C2.60249 17.4137 4.77249 16.8087 6.77124 15.275C5.75124 15.1525 4.86249 14.8862 4.11249 14.2925C3.38249 13.71 2.82249 12.9838 2.52249 11.9913H4.37249C4.38249 11.95 4.39249 11.9087 4.40249 11.8575C3.38249 11.5612 2.51249 11.0287 1.86249 10.18C1.21249 9.3425 0.893738 8.37 0.862488 7.305C1.51249 7.49 2.13249 7.67375 2.76249 7.8475C2.78249 7.80625 2.81249 7.76625 2.83249 7.725C1.93249 6.9675 1.28249 6.0575 1.04374 4.88125C0.797294 3.73402 0.970721 2.53644 1.53249 1.50625C4.03249 4.4925 7.17124 6.15 11.03 6.42625C10.91 5.45375 10.9 4.55375 11.23 3.67375C12.37 0.595001 16.2087 -0.387499 18.5975 1.8225C18.8675 2.0675 19.0975 2.10875 19.3875 2.00625C20.1775 1.72 20.9562 1.41375 21.7662 1.10625C21.4562 2.11875 20.7862 2.86625 19.9975 3.5925C20.7662 3.3875 21.5362 3.1725 22.2962 2.9675C22.3262 2.99875 22.3562 3.01875 22.3862 3.05C21.8062 3.66375 21.2462 4.30875 20.6175 4.86125C20.2775 5.1575 20.1675 5.43375 20.1475 5.88375C19.9675 10.8962 17.9575 14.9462 13.6787 17.495C9.31999 20.0825 4.83249 19.9287 0.413738 17.4637C0.333738 17.4137 0.263738 17.3512 0.113738 17.2387H0.112488Z" fill="white"/>
</g>
<defs>
<clipPath id="clip0_18_82">
<rect width="22.5" height="20" fill="white"/>
</clipPath>
</defs>
</svg>
