<svg width="28" height="20" viewBox="0 0 28 20" fill="none" xmlns="http://www.w3.org/2000/svg">
<path d="M10.1375 0.625C9.78748 0.6275 6.91998 0.70875 3.89248 2.96625C3.89248 2.96625 0.662476 8.7975 0.662476 15.9763C0.662476 15.9763 2.54622 19.2175 7.50373 19.375C7.50373 19.375 8.33373 18.385 9.00623 17.5287C6.15873 16.6725 5.08123 14.8937 5.08123 14.8937C5.08123 14.8937 5.30623 15.0513 5.70873 15.2775C5.73123 15.2775 5.75248 15.3013 5.79623 15.3225C5.86498 15.3663 5.93123 15.39 5.99873 15.435C6.55873 15.75 7.11873 15.9975 7.63623 16.1987C8.55623 16.5825 9.65498 16.9187 10.935 17.1662C12.6175 17.4812 14.5912 17.5937 16.7425 17.19C17.858 16.9824 18.9485 16.6581 19.9962 16.2225C20.9035 15.8799 21.7683 15.434 22.5737 14.8937C22.5737 14.8937 21.4537 16.7162 18.515 17.55C19.1875 18.3825 19.9962 19.3488 19.9962 19.3488C24.9525 19.1913 26.8375 15.9488 26.8375 15.9738C26.8375 8.79125 23.6075 2.9625 23.6075 2.9625C20.4 0.5575 17.3262 0.625 17.3262 0.625L17.0125 0.985C20.825 2.1325 22.5975 3.8225 22.5975 3.8225C20.5055 2.68325 18.2138 1.95714 15.8475 1.68375C14.3404 1.51599 12.8185 1.5311 11.315 1.72875C11.1812 1.72875 11.0687 1.7525 10.9325 1.7725C10.1475 1.8625 8.24123 2.1325 5.84123 3.19125C5.01248 3.55125 4.51748 3.8225 4.51748 3.8225C4.51748 3.8225 6.35998 2.04375 10.3962 0.89625L10.1712 0.625H10.1362H10.1375ZM9.56623 8.93125C10.8437 8.93125 11.8775 10.0338 11.8537 11.4075C11.8537 12.7825 10.8437 13.885 9.56623 13.885C8.30998 13.885 7.27873 12.7813 7.27873 11.4075C7.27873 10.0338 8.28623 8.93125 9.56623 8.93125V8.93125ZM17.7537 8.93125C19.0087 8.93125 20.0412 10.0338 20.0412 11.4075C20.0412 12.7825 19.03 13.885 17.7537 13.885C16.4962 13.885 15.4662 12.7813 15.4662 11.4075C15.4662 10.0338 16.4737 8.93125 17.7537 8.93125V8.93125Z" fill="white"/>
</svg>
