<svg width="20" height="20" viewBox="0 0 20 20" fill="none" xmlns="http://www.w3.org/2000/svg">
<mask id="mask0_304_644" style="mask-type:alpha" maskUnits="userSpaceOnUse" x="0" y="0" width="20" height="20">
<rect width="20" height="20" fill="#D9D9D9"/>
</mask>
<g mask="url(#mask0_304_644)">
<path d="M10 13.354C11.0553 13.354 11.9513 12.986 12.688 12.25C13.424 11.514 13.792 10.618 13.792 9.56201C13.792 8.50668 13.424 7.61101 12.688 6.87501C11.9513 6.13901 11.0553 5.77101 10 5.77101C8.94467 5.77101 8.04867 6.13901 7.312 6.87501C6.576 7.61101 6.208 8.50668 6.208 9.56201C6.208 10.632 6.576 11.5313 7.312 12.26C8.04867 12.9893 8.94467 13.354 10 13.354ZM10 11.812C9.37467 11.812 8.84333 11.5933 8.406 11.156C7.96867 10.7187 7.75 10.1873 7.75 9.56201C7.75 8.93735 7.96867 8.40634 8.406 7.96901C8.84333 7.53101 9.37467 7.31201 10 7.31201C10.6253 7.31201 11.1567 7.53101 11.594 7.96901C12.0313 8.40634 12.25 8.93735 12.25 9.56201C12.25 10.1873 12.0313 10.7187 11.594 11.156C11.1567 11.5933 10.6253 11.812 10 11.812ZM10 15.833C7.95867 15.833 6.108 15.2637 4.448 14.125C2.788 12.9863 1.583 11.4653 0.833 9.56201C1.583 7.65935 2.79133 6.14201 4.458 5.01001C6.12467 3.87801 7.972 3.31201 10 3.31201C12.028 3.31201 13.8753 3.87801 15.542 5.01001C17.2087 6.14201 18.417 7.65935 19.167 9.56201C18.417 11.4653 17.212 12.9863 15.552 14.125C13.892 15.2637 12.0413 15.833 10 15.833Z" fill="#1C1B1F"/>
</g>
</svg>
